<?xml version="1.0" standalone="no"?>
<!DOCTYPE svg PUBLIC "-//W3C//DTD SVG 20010904//EN"
 "http://www.w3.org/TR/2001/REC-SVG-20010904/DTD/svg10.dtd">
<svg version="1.0" xmlns="http://www.w3.org/2000/svg"
 width="1024.000000pt" height="1024.000000pt" viewBox="0 0 1024.000000 1024.000000"
 preserveAspectRatio="xMidYMid meet">

<g transform="translate(0.000000,1024.000000) scale(0.100000,-0.100000)"
fill="#000000" stroke="none">
<path d="M1953 6533 c15 -2 37 -2 50 0 12 2 0 4 -28 4 -27 0 -38 -2 -22 -4z"/>
<path d="M1805 6520 c-13 -5 -14 -9 -5 -9 8 0 24 4 35 9 13 5 14 9 5 9 -8 0
-24 -4 -35 -9z"/>
<path d="M2038 6523 c7 -3 16 -2 19 1 4 3 -2 6 -13 5 -11 0 -14 -3 -6 -6z"/>
<path d="M2140 6485 c85 -43 174 -161 200 -262 l10 -38 -5 38 c-10 89 -107
222 -195 267 -22 11 -43 20 -47 20 -4 -1 12 -12 37 -25z"/>
<path d="M1720 6479 c-70 -42 -148 -136 -164 -199 -4 -14 5 -2 19 25 47 89 79
123 171 182 33 21 11 14 -26 -8z"/>
<path d="M1536 6219 c-25 -126 24 -267 125 -364 83 -79 149 -107 263 -111 l91
-3 -92 9 c-164 14 -278 92 -344 233 -31 66 -34 80 -34 170 0 53 -1 97 -1 97
-1 0 -4 -14 -8 -31z"/>
<path d="M2353 6135 c0 -27 2 -38 4 -22 2 15 2 37 0 50 -2 12 -4 0 -4 -28z"/>
<path d="M2341 6064 c0 -11 3 -14 6 -6 3 7 2 16 -1 19 -3 4 -6 -2 -5 -13z"/>
<path d="M2304 5968 c-37 -83 -145 -171 -249 -204 -22 -7 -31 -13 -20 -13 34
-1 138 54 190 102 46 41 113 142 103 153 -3 2 -13 -15 -24 -38z"/>
<path d="M3200 5653 c0 -5 59 -8 131 -8 l131 0 54 -130 c119 -286 169 -401
182 -420 18 -26 16 -19 -61 160 -35 83 -86 202 -112 265 -26 63 -52 121 -58
128 -10 13 -267 18 -267 5z"/>
<path d="M3939 5593 c-17 -37 -50 -115 -74 -173 -46 -112 -70 -168 -103 -240
-36 -79 -52 -123 -49 -127 4 -3 87 184 203 460 l58 138 121 -3 120 -3 0 -465
0 -465 -92 -3 -93 -3 0 328 -1 328 -19 -40 c-19 -41 -172 -382 -238 -532 -33
-76 -39 -83 -65 -83 -32 0 -32 -1 -169 320 -42 96 -92 209 -111 250 l-36 75
-1 -322 0 -322 -97 -4 -98 -3 102 -2 103 -2 2 306 3 305 104 -243 c172 -400
156 -370 198 -366 l37 3 98 220 c55 121 108 240 118 265 10 25 27 63 37 85
l18 40 5 -305 5 -305 100 0 100 0 0 475 0 475 -128 3 -128 3 -30 -68z"/>
<path d="M6397 5654 c-4 -4 -7 -220 -7 -481 l0 -473 100 0 100 0 0 31 0 30 33
-25 c60 -46 109 -59 205 -54 72 3 96 9 140 33 91 49 164 145 176 230 l6 40
-13 -45 c-21 -69 -45 -109 -96 -160 -61 -60 -136 -90 -230 -90 -81 0 -138 18
-192 61 l-39 31 0 -36 0 -36 -90 0 -90 0 0 470 0 470 90 0 90 0 0 -156 0 -156
33 24 c46 35 112 68 138 68 12 0 20 3 16 6 -13 13 -78 -8 -126 -41 l-50 -33
-3 146 -3 147 -90 3 c-50 1 -94 0 -98 -4z"/>
<path d="M3205 5175 c0 -253 1 -355 2 -227 2 128 2 335 0 460 -1 125 -2 20 -2
-233z"/>
<path d="M1747 5553 c105 -2 281 -2 390 0 109 1 23 2 -192 2 -214 0 -304 -1
-198 -2z"/>
<path d="M1440 5527 c-141 -48 -246 -138 -305 -261 -51 -108 -57 -161 -53
-536 3 -316 4 -338 25 -388 34 -83 87 -140 162 -176 l66 -31 515 0 515 -1
-515 6 -515 5 -58 27 c-92 43 -152 123 -176 236 -7 33 -11 172 -11 366 0 280
2 321 20 391 24 94 53 145 125 223 63 69 144 115 247 142 40 10 62 19 48 19
-14 0 -54 -10 -90 -22z"/>
<path d="M2396 5536 c97 -22 173 -67 242 -141 67 -71 100 -128 126 -214 13
-45 16 -106 16 -332 0 -303 -5 -348 -53 -449 -55 -117 -159 -201 -302 -241
-33 -10 -53 -18 -44 -18 23 -1 119 29 161 50 21 11 66 46 101 79 70 65 119
154 137 249 5 30 10 178 10 330 0 241 -2 285 -19 345 -23 82 -93 189 -161 246
-62 52 -162 98 -225 105 -49 5 -49 5 11 -9z"/>
<path d="M4633 5440 c-80 -16 -141 -51 -197 -111 -54 -58 -97 -145 -95 -192 1
-13 4 -7 10 16 13 57 56 134 100 182 47 51 117 83 219 100 41 7 59 13 40 13
-19 0 -54 -4 -77 -8z"/>
<path d="M5490 5441 c-17 -5 -5 -7 40 -7 85 0 130 -16 179 -65 l39 -40 25 25
c38 38 105 67 187 82 l75 14 -63 -5 c-69 -5 -136 -31 -189 -71 l-34 -26 -36
32 c-20 18 -51 38 -68 46 -41 17 -123 25 -155 15z"/>
<path d="M6793 5443 c9 -2 23 -2 30 0 6 3 -1 5 -18 5 -16 0 -22 -2 -12 -5z"/>
<path d="M7643 5443 c9 -2 25 -2 35 0 9 3 1 5 -18 5 -19 0 -27 -2 -17 -5z"/>
<path d="M8833 5443 c9 -2 23 -2 30 0 6 3 -1 5 -18 5 -16 0 -22 -2 -12 -5z"/>
<path d="M4785 5430 c132 -27 225 -122 255 -260 l9 -45 -4 49 c-13 127 -161
270 -275 265 -17 -1 -12 -4 15 -9z"/>
<path d="M6082 5426 c87 -23 157 -97 177 -186 6 -25 11 -154 11 -287 l0 -242
-97 -4 -98 -3 103 -2 102 -2 0 253 c0 296 -7 332 -73 404 -45 49 -106 83 -147
82 -16 0 -8 -5 22 -13z"/>
<path d="M6902 5421 c74 -24 117 -51 157 -101 55 -68 82 -141 91 -243 l9 -92
-3 92 c-3 77 -8 102 -34 156 -16 35 -46 83 -67 105 -41 46 -144 102 -184 101
-18 0 -8 -6 31 -18z"/>
<path d="M7517 5409 c-26 -17 -47 -36 -47 -42 0 -6 13 1 28 16 15 15 45 33 67
41 26 9 33 15 19 15 -11 1 -42 -13 -67 -30z"/>
<path d="M7708 5348 c3 -67 0 -93 -10 -100 -10 -8 -10 -9 2 -5 12 3 16 24 18
92 2 48 -1 92 -5 96 -4 5 -7 -33 -5 -83z"/>
<path d="M8715 5422 c-101 -34 -175 -146 -160 -246 15 -99 74 -143 253 -188
65 -17 125 -37 135 -45 11 -11 17 -12 17 -4 0 16 -46 34 -160 61 -105 25 -182
61 -205 96 -46 71 -37 175 22 244 39 45 75 67 143 86 25 7 36 12 25 12 -11 1
-42 -7 -70 -16z"/>
<path d="M8935 5430 c57 -12 90 -26 143 -61 l47 -30 -35 30 c-39 35 -127 72
-168 70 -21 -1 -18 -3 13 -9z"/>
<path d="M5150 5065 l0 -365 100 0 100 0 -2 223 -3 222 -2 -217 -3 -218 -90 0
-90 0 0 355 0 355 89 0 90 0 4 -42 4 -43 -1 45 -1 45 -97 3 -98 3 0 -366z"/>
<path d="M5397 5405 c-48 -33 -48 -42 1 -12 20 13 44 26 52 30 13 5 13 6 0 6
-9 1 -32 -10 -53 -24z"/>
<path d="M7255 5417 c-3 -6 -4 -170 -3 -362 l3 -350 97 -3 97 -3 3 218 c3 251
9 270 88 311 24 12 39 22 32 22 -29 0 -93 -43 -109 -73 -15 -27 -18 -65 -21
-249 l-4 -218 -89 0 -89 0 0 355 0 355 90 0 90 0 0 -46 c0 -25 4 -43 8 -40 10
6 8 68 -2 85 -10 16 -185 15 -191 -2z"/>
<path d="M7790 5158 c0 -157 4 -289 10 -310 28 -101 120 -167 235 -170 97 -3
137 7 190 47 l45 35 0 -30 0 -30 100 0 100 0 0 365 0 365 -99 0 -100 0 -3
-238 c-3 -266 -5 -273 -76 -312 -25 -14 -29 -19 -12 -14 37 9 79 53 90 93 5
20 10 132 10 249 l0 212 90 0 90 0 0 -355 0 -355 -90 0 -90 0 0 36 0 36 -32
-28 c-57 -48 -105 -64 -194 -64 -107 0 -174 32 -219 105 l-30 48 -3 289 -3
288 90 0 91 0 0 -239 c0 -231 1 -239 23 -272 28 -42 61 -59 112 -58 38 1 37 2
-13 9 -103 15 -106 24 -112 320 l-5 245 -97 3 -98 3 0 -273z"/>
<path d="M9091 5298 c-48 -75 -43 -73 -105 -43 -30 15 -74 28 -98 31 l-43 3
45 -9 c25 -5 67 -21 93 -35 27 -14 53 -25 57 -25 11 0 84 100 77 106 -2 3 -14
-10 -26 -28z"/>
<path d="M4637 5276 c-45 -16 -73 -40 -80 -66 -3 -12 8 -5 32 20 60 63 169 63
233 0 15 -16 28 -25 28 -21 0 14 -45 50 -82 66 -45 18 -81 19 -131 1z"/>
<path d="M8763 5273 c-31 -21 -29 -58 2 -79 14 -9 69 -27 123 -39 117 -28 158
-45 195 -79 83 -77 74 -234 -18 -315 -18 -16 -60 -39 -92 -51 -50 -19 -72 -21
-158 -17 -110 5 -167 22 -227 69 -43 34 -42 36 20 107 l39 45 29 -21 c40 -27
90 -43 133 -42 30 1 28 3 -16 9 -29 4 -73 20 -98 35 -53 30 -52 31 -115 -45
-22 -27 -38 -54 -35 -62 9 -23 97 -76 154 -92 73 -21 200 -21 269 1 66 21 138
82 163 138 26 57 25 140 -3 195 -34 66 -84 96 -219 129 -133 33 -159 44 -159
70 0 24 22 42 63 51 l32 8 -30 0 c-16 1 -40 -6 -52 -15z"/>
<path d="M6695 5254 c-59 -31 -107 -96 -104 -143 0 -9 4 -4 9 11 24 81 94 138
168 138 109 0 168 -63 182 -194 7 -65 7 -67 9 -21 1 60 -14 120 -41 158 -43
60 -156 86 -223 51z"/>
<path d="M5413 5240 c-30 -18 -70 -76 -60 -87 3 -2 13 11 22 30 22 47 73 71
133 64 52 -6 78 -28 97 -83 8 -21 14 -31 15 -21 2 91 -121 150 -207 97z"/>
<path d="M5880 5241 c-69 -36 -75 -59 -78 -308 l-4 -222 -91 -4 -92 -3 97 -2
97 -2 3 223 c3 246 7 264 67 304 61 41 142 27 177 -30 16 -28 20 -60 25 -257
l5 -225 2 215 c0 144 -3 226 -11 250 -25 71 -122 102 -197 61z"/>
<path d="M7613 5253 c15 -2 37 -2 50 0 12 2 0 4 -28 4 -27 0 -38 -2 -22 -4z"/>
<path d="M1564 5176 c-35 -16 -59 -36 -75 -62 -24 -38 -24 -43 -27 -317 -2
-210 0 -282 9 -293 11 -13 68 -15 409 -12 l396 3 48 25 c84 43 90 66 94 315 3
202 2 212 -20 255 -25 49 -70 84 -127 100 -20 6 -169 10 -346 10 -305 0 -311
-1 -361 -24z m746 -13 c25 -13 56 -39 70 -60 25 -36 25 -38 25 -257 0 -258 -4
-273 -90 -316 l-50 -25 -395 0 -395 0 -3 260 c-2 161 1 274 8 296 14 51 47 88
94 110 38 18 66 19 366 16 314 -2 327 -3 370 -24z"/>
<path d="M4850 5181 c0 -6 4 -13 10 -16 6 -3 7 1 4 9 -7 18 -14 21 -14 7z"/>
<path d="M4623 5143 c48 -2 125 -2 170 0 45 1 6 3 -88 3 -93 0 -130 -2 -82 -3z"/>
<path d="M5050 5075 l-5 -50 -257 -3 c-247 -2 -258 -3 -258 -22 0 -83 91 -159
192 -160 61 0 136 25 170 57 l27 26 37 -29 c74 -59 88 -65 34 -15 -60 55 -71
59 -91 35 -24 -29 -93 -57 -155 -62 -83 -6 -144 22 -179 82 -47 80 -58 76 230
76 284 0 269 -4 263 71 l-4 44 -4 -50z"/>
<path d="M4333 5060 c0 -25 2 -35 4 -22 2 12 2 32 0 45 -2 12 -4 2 -4 -23z"/>
<path d="M5624 4915 c0 -104 2 -146 3 -92 2 54 2 139 0 190 -1 51 -3 7 -3 -98z"/>
<path d="M6581 5054 c0 -21 4 -48 9 -59 5 -12 6 1 3 35 -7 66 -13 79 -12 24z"/>
<path d="M4341 4979 c-1 -24 12 -62 35 -108 69 -138 182 -197 365 -189 113 4
195 36 255 101 l39 41 -44 -38 c-24 -21 -69 -50 -100 -65 -50 -23 -68 -26
-171 -26 -89 0 -126 4 -165 19 -97 38 -187 150 -205 255 -7 44 -8 45 -9 10z"/>
<path d="M6932 4956 c-7 -20 -30 -48 -49 -63 -32 -25 -45 -28 -109 -28 -81 0
-111 15 -151 75 -28 40 -30 27 -4 -16 46 -76 190 -98 265 -40 36 27 70 79 64
97 -2 6 -9 -6 -16 -25z"/>
<path d="M8938 4888 c-17 -18 -22 -28 -13 -28 14 0 52 48 44 53 -2 1 -16 -10
-31 -25z"/>
<path d="M8863 4853 c9 -2 23 -2 30 0 6 3 -1 5 -18 5 -16 0 -22 -2 -12 -5z"/>
</g>
</svg>
